<svg width="286" height="72" viewBox="0 0 286 72" fill="none" xmlns="http://www.w3.org/2000/svg">
<path fill-rule="evenodd" clip-rule="evenodd" d="M35.1194 47.7874C33.8607 47.0786 32.2892 47.4772 31.5426 48.6955C29.9484 51.2936 26.7298 54.3911 20.454 54.3911C16.3349 54.3911 12.8842 52.7566 10.1979 49.5329C7.47869 46.2084 6.09892 41.9884 6.09892 36.9864C6.09892 31.9971 7.43833 27.936 10.1928 24.5685C12.9599 21.2616 16.4106 19.5842 20.4515 19.5842C26.4952 19.5842 29.7794 22.76 31.4694 25.4236C32.2413 26.6369 33.8355 27.0178 35.1017 26.2863C35.7475 25.913 36.2015 25.3076 36.3781 24.5812C36.5572 23.8471 36.4285 23.0879 36.0199 22.4472C34.1382 19.506 29.6104 14.5747 20.4515 14.5747C14.8215 14.5747 10.0263 16.7339 6.20234 20.9917C2.44394 25.242 0.536987 30.6249 0.536987 36.9889C0.536987 43.4337 2.44394 48.8595 6.20487 53.1148C10.0087 57.2869 14.8038 59.4032 20.449 59.4032C29.729 59.4032 34.2264 54.4592 36.0829 51.513C36.4664 50.9026 36.5799 50.1787 36.4008 49.4724C36.2267 48.7611 35.7576 48.1481 35.1194 47.7874ZM113.761 15.1876C112.313 15.1876 111.138 16.3656 111.138 17.811V56.23C111.138 57.6778 112.313 58.8533 113.761 58.8533C115.209 58.8533 116.384 57.6753 116.384 56.23V17.811C116.382 16.3656 115.206 15.1876 113.761 15.1876ZM44.5255 30.5416C47.5196 27.3028 51.3411 25.6607 55.889 25.6607C60.3966 25.6607 64.1979 27.3028 67.192 30.5416C70.2189 33.8157 71.755 37.8617 71.755 42.5635C71.755 47.288 70.2618 51.2003 67.192 54.5223C64.1979 57.7611 60.3966 59.4032 55.889 59.4032C51.3411 59.4032 47.5196 57.7611 44.5255 54.5223C41.4961 51.2457 40.023 47.3334 40.023 42.5635C40.023 37.8163 41.5364 33.7728 44.5255 30.5416ZM55.889 54.5803C58.9512 54.5803 61.4963 53.3796 63.4512 51.0086C65.4792 48.6223 66.5084 45.7821 66.5084 42.561C66.5084 39.3424 65.4818 36.5021 63.4588 34.1209C61.514 31.707 58.9664 30.4811 55.889 30.4811C52.8293 30.4811 50.264 31.7045 48.2637 34.1159C46.2761 36.5248 45.2696 39.3651 45.2696 42.561C45.2696 45.7569 46.2786 48.5971 48.2662 51.0086C50.2817 53.3771 52.8444 54.5803 55.889 54.5803ZM79.4736 30.5416C82.4678 27.3028 86.2917 25.6607 90.8372 25.6607C95.3422 25.6607 99.146 27.3028 102.14 30.5416C105.167 33.8157 106.703 37.8617 106.703 42.5635C106.703 47.288 105.21 51.2003 102.14 54.5223C99.146 57.7611 95.3447 59.4032 90.8372 59.4032C86.2917 59.4032 82.4678 57.7611 79.4736 54.5223C76.4442 51.2457 74.9711 47.3334 74.9711 42.5635C74.9711 37.8163 76.4871 33.7728 79.4736 30.5416ZM90.8372 54.5803C93.8994 54.5803 96.4445 53.3796 98.3994 51.0086C100.427 48.6223 101.457 45.7821 101.457 42.561C101.457 39.3424 100.43 36.5021 98.4069 34.1209C96.4622 31.707 93.9145 30.4811 90.8372 30.4811C87.7775 30.4811 85.2122 31.7045 83.2119 34.1159C81.2242 36.5223 80.2178 39.3651 80.2178 42.561C80.2178 45.7569 81.2267 48.5996 83.2144 51.0086C85.2298 53.3771 87.7926 54.5803 90.8372 54.5803ZM160.756 17.811C160.756 16.3656 161.932 15.1876 163.379 15.1876C164.825 15.1876 166.003 16.3656 166.003 17.811V56.23C166.003 57.6753 164.827 58.8533 163.379 58.8533C161.932 58.8533 160.756 57.6778 160.756 56.23V17.811ZM124.284 15.1675H140.983C151.802 15.1675 156.627 19.2614 156.629 28.4354C156.629 37.279 151.365 41.7639 140.983 41.7639H127.909V56.119C127.909 57.6501 126.663 58.8987 125.129 58.8987C123.596 58.8987 122.35 57.6526 122.35 56.119V17.1022C122.35 16.0352 123.217 15.1675 124.284 15.1675ZM127.909 36.6938H140.191C148.222 36.6938 151.068 34.5321 151.07 28.4354C151.07 22.7272 147.94 20.1795 140.922 20.1795H127.909V36.6938ZM218.436 25.6607C214.648 25.6607 211.437 27.038 208.894 29.7571L208.712 29.9514L207.562 26.2106H203.922C203.065 26.2106 202.363 26.9093 202.363 27.767V56.2779C202.363 57.7258 203.541 58.9062 204.992 58.9062C206.442 58.9062 207.62 57.7283 207.62 56.2779V42.1624C207.62 34.7465 211.54 30.4912 218.376 30.4912C222.906 30.4912 225.108 32.8143 225.108 37.5893V56.2779C225.108 57.7258 226.286 58.9062 227.737 58.9062C229.184 58.9062 230.365 57.7283 230.365 56.2779V37.4657C230.365 34.131 229.754 31.818 228.256 29.4822C226.652 26.9825 223.257 25.6607 218.436 25.6607ZM238.644 30.6299C241.297 27.3003 245.172 25.6103 250.156 25.6103C254.989 25.6103 259.08 27.4138 261.976 30.8216C265.086 34.4791 265.661 39.4281 265.727 42.054C265.742 42.5786 265.545 43.0755 265.179 43.4514C264.814 43.8298 264.319 44.0366 263.792 44.0366H239.955L239.968 44.2031C240.419 50.5041 244.561 54.5753 250.519 54.5753C254.419 54.5753 257.138 52.749 258.732 51.2179C259.509 50.4738 260.71 50.3351 261.648 50.8824C262.311 51.2659 262.748 51.9192 262.851 52.6759C262.955 53.4326 262.707 54.1792 262.173 54.7241C260.084 56.8581 256.366 59.4032 250.519 59.4032C247.227 59.4032 243.996 58.374 240.649 56.2602C236.918 53.7958 234.691 48.7333 234.691 42.7199C234.691 37.9298 236.02 33.8637 238.644 30.6299ZM240.263 39.0271L240.23 39.2087H260.389L260.362 39.0296C259.953 36.4466 258.134 30.4407 250.153 30.4407C244.801 30.4407 241.29 33.4903 240.263 39.0271ZM282.778 54.5223C282.286 54.5677 281.762 54.5879 281.222 54.5879C279.976 54.5879 278.384 54.3079 277.892 52.9685C277.474 51.7779 277.416 51.2633 277.416 49.9895V31.0007H282.93C284.261 31.0007 285.344 29.9186 285.344 28.5868C285.344 27.2549 284.261 26.1728 282.93 26.1728H277.416V17.7656C277.416 16.3177 276.238 15.1372 274.787 15.1372C273.339 15.1372 272.159 16.3152 272.159 17.7656V26.1753H268.902C267.571 26.1753 266.489 27.2574 266.489 28.5893C266.489 29.9211 267.571 31.0032 268.902 31.0032H272.159V49.9315C272.159 56.5806 274.522 59.4183 280.062 59.4183C281.257 59.4183 282.339 59.3578 283.28 59.2392C284.456 59.0904 285.341 58.0789 285.341 56.8858C285.341 56.2174 285.059 55.5767 284.567 55.1277C284.075 54.6762 283.442 54.4617 282.778 54.5223ZM174.751 28.7986C176.582 27.3457 179.78 25.6103 184.649 25.6103C192.571 25.6103 196.759 29.7773 196.759 37.6599V57.3348C196.759 58.1722 196.078 58.8533 195.24 58.8533H193.795C192.367 58.8533 191.615 57.9049 191.565 56.0332L191.555 55.6952L191.305 55.9222C188.775 58.2303 185.736 59.4007 182.27 59.4007C175.177 59.4007 170.77 55.3925 170.77 48.9377C170.77 46.3017 171.819 44.0114 173.893 42.1271C175.911 40.2303 179.243 39.2667 183.793 39.2667C189.063 39.2667 191.623 38.0231 191.623 35.4629C191.623 32.4107 188.957 30.4382 184.83 30.4382C181.601 30.4382 179.374 31.7474 178.075 32.8446C177.051 33.7098 175.55 33.6795 174.582 32.779C174.024 32.2594 173.721 31.5254 173.752 30.7661C173.782 29.9968 174.145 29.2804 174.751 28.7986ZM182.454 54.7569C185.963 54.7569 188.367 53.6369 189.804 51.3289C191.045 49.3362 191.623 46.3799 191.623 42.0262V41.4334L191.333 41.9505C191.323 41.9707 190.231 43.7919 183.763 43.7919C178.01 43.7919 175.969 46.8264 175.969 49.427C175.969 52.7642 179.266 54.7569 182.454 54.7569Z" fill="black"/>
</svg>
