<svg width="72" height="72" viewBox="0 0 72 72" fill="none" xmlns="http://www.w3.org/2000/svg">
<path d="M13.4344 13.9917L14.4712 15.321C14.6503 15.1798 14.8243 15.036 15.0059 14.8998L13.9188 13.5049C13.7573 13.6638 13.5934 13.8278 13.4344 13.9917Z" fill="#017BE2"/>
<path d="M12.9829 16.5873C13.1368 16.446 13.2932 16.3098 13.4495 16.1711L12.4431 15.0562C12.3044 15.2125 12.1656 15.3715 12.0294 15.5304C12.1555 15.6691 12.9829 16.5873 12.9829 16.5873Z" fill="#017BE2"/>
<path d="M16.0426 14.1581C16.2469 14.0193 16.4563 13.8907 16.6631 13.757L15.523 12.0342C15.3338 12.1956 15.1471 12.3596 14.963 12.5261C15.0816 12.7051 16.0426 14.1581 16.0426 14.1581Z" fill="#017BE2"/>
<path d="M11.5982 17.9618C11.7268 17.8231 11.858 17.6869 11.9892 17.5507L11.0836 16.688C10.9676 16.8393 10.8515 16.9907 10.738 17.142L11.5982 17.9618Z" fill="#017BE2"/>
<path d="M23.1534 10.7554C23.4611 10.6621 23.7714 10.5738 24.0816 10.4906L23.1458 7.21143C22.8482 7.34511 22.5531 7.48132 22.2579 7.6251L23.1534 10.7554Z" fill="#017BE2"/>
<path d="M21.2691 11.414C21.5516 11.303 21.8341 11.1971 22.1217 11.0962L21.0623 8.23828C20.7924 8.38458 20.525 8.53341 20.2601 8.68727L21.2691 11.414Z" fill="#017BE2"/>
<path d="M19.4504 12.196C19.7052 12.0724 19.965 11.9589 20.2248 11.8453C20.2248 11.8453 19.1831 9.59283 19.0923 9.39355C18.8501 9.54742 18.6105 9.70633 18.3708 9.86525L19.4504 12.196Z" fill="#017BE2"/>
<path d="M17.71 13.1215C17.9395 12.9903 18.1691 12.8566 18.4037 12.7305L17.2484 10.6621C17.034 10.821 16.8196 10.9825 16.6102 11.1489L17.71 13.1215Z" fill="#017BE2"/>
<path d="M6.34896 26.1724C6.38427 26.0841 6.41706 25.9958 6.45238 25.9075L6.16735 25.7915C6.13708 25.8798 6.10681 25.9706 6.07654 26.0614L6.34896 26.1724Z" fill="#2E58A6"/>
<path d="M5.71079 27.928C5.7234 27.8927 5.73601 27.8574 5.7461 27.8221L5.56449 27.7666C5.5544 27.8019 5.54431 27.8398 5.53674 27.8751L5.71079 27.928Z" fill="#2E58A6"/>
<path d="M10.3143 19.4328C10.4202 19.2991 10.5287 19.1679 10.6397 19.0393C10.6397 19.0393 9.96365 18.4844 9.85266 18.3936C9.75681 18.5373 9.66096 18.6811 9.56763 18.8249L10.3143 19.4328Z" fill="#0066CE"/>
<path d="M9.14127 20.9966C9.22703 20.873 9.31531 20.7494 9.4036 20.6258C9.4036 20.6258 8.85623 20.2399 8.7402 20.1592C8.66453 20.2903 8.58886 20.4215 8.51318 20.5552L9.14127 20.9966Z" fill="#0058CE"/>
<path d="M8.08688 22.6461C8.15499 22.5326 8.21805 22.4165 8.28615 22.303L7.75644 21.9902C7.69843 22.1088 7.63789 22.2273 7.5824 22.3484L8.08688 22.6461Z" fill="#0058CE"/>
<path d="M7.15107 24.3742C7.20152 24.2733 7.25449 24.1724 7.30746 24.0715L6.90135 23.8672C6.85847 23.9731 6.81559 24.0765 6.77271 24.1825L7.15107 24.3742Z" fill="#2E58A6"/>
<path d="M50.4761 18.396L53.7376 15.301C53.3441 14.8646 52.9355 14.4434 52.5193 14.0322L49.2578 17.1298C49.6765 17.5384 50.0852 17.9596 50.4761 18.396Z" fill="#FFB466"/>
<path d="M52.0956 13.6284C51.6845 13.2374 51.2632 12.8566 50.8294 12.4883L47.8075 15.8154C48.2414 16.1811 48.6626 16.562 49.0738 16.9555L52.0956 13.6284Z" fill="#FFA894"/>
<path d="M48.4608 10.6571C48.027 10.3544 47.5856 10.0618 47.134 9.7793L44.6444 13.52C45.0959 13.7975 45.5373 14.0926 45.9712 14.3979L48.4608 10.6571Z" fill="#F28694"/>
<path d="M46.4757 9.38327C46.0368 9.12347 45.5903 8.87627 45.1363 8.63916L42.9342 12.5615C43.3882 12.7961 43.8372 13.0433 44.2761 13.3031L46.4757 9.38327Z" fill="#E684AB"/>
<path d="M57.829 21.0141C57.5162 20.4516 57.1807 19.8992 56.8352 19.3594L52.9708 21.6573C53.3214 22.1971 53.6569 22.747 53.9672 23.312L57.829 21.0141Z" fill="#FFCF45"/>
<path d="M56.6082 19.0063C56.2626 18.4841 55.9069 17.9721 55.5311 17.4727L51.8458 20.0531C52.2242 20.55 52.5824 21.0621 52.9254 21.5842L56.6082 19.0063Z" fill="#FFCF45"/>
<path d="M55.2385 17.1017C54.8677 16.6224 54.4818 16.1558 54.0832 15.6992L50.6023 18.542C51.0034 18.996 51.3893 19.4627 51.7601 19.9445L55.2385 17.1017Z" fill="#FFC366"/>
<path d="M50.34 12.0724C49.9137 11.7243 49.4798 11.3913 49.0359 11.0659L46.2688 14.6124C46.7153 14.9353 47.1516 15.2657 47.5754 15.6138L50.34 12.0724Z" fill="#FF9294"/>
<path d="M29.477 5.1582C29.3256 5.19099 29.1743 5.22378 29.0229 5.25657L29.1945 9.66577C29.5703 9.64306 29.9487 9.63045 30.3296 9.62288L30.153 5.12793C30.1505 5.12793 29.477 5.1582 29.477 5.1582Z" fill="#017BE2"/>
<path d="M26.6444 5.89465L27.1211 9.87755C27.4768 9.8271 27.8325 9.77918 28.1881 9.71107L27.6963 5.58691L27.3608 5.68024C27.1211 5.74835 26.8815 5.81898 26.6444 5.89465Z" fill="#017BE2"/>
<path d="M25.1083 10.2432C25.4387 10.17 25.7742 10.1019 26.1097 10.0414L25.363 6.3208C25.0376 6.43683 24.7148 6.55791 24.3944 6.68655L25.1083 10.2432Z" fill="#017BE2"/>
<path d="M32.4964 9.66805L32.683 5.17814C32.287 5.15543 31.891 5.14282 31.4924 5.13525L31.3058 9.62264C31.7018 9.63021 32.1003 9.64282 32.4964 9.66805Z" fill="#406AE2"/>
<path d="M42.2027 7.29225C41.7638 7.1182 41.3199 6.95424 40.8709 6.79785L39.2969 11.0103C39.7459 11.1616 40.1898 11.3256 40.6287 11.5022L42.2027 7.29225Z" fill="#B077C2"/>
<path d="M39.9376 6.48514C39.5037 6.35145 39.0673 6.22785 38.6259 6.11182L37.3849 10.4327C37.8263 10.5462 38.2627 10.6698 38.6965 10.806L39.9376 6.48514Z" fill="#8F6AE2"/>
<path d="M44.387 8.25325C43.9456 8.03632 43.4991 7.832 43.0451 7.63525L41.1508 11.7115C41.6048 11.9057 42.0487 12.1126 42.4902 12.332L44.387 8.25325Z" fill="#CF77C2"/>
<path d="M35.4098 10.0165C35.8411 10.0921 36.2674 10.1779 36.6887 10.2737L37.5866 5.86959C37.1629 5.77374 36.7366 5.6905 36.3078 5.6123L35.4098 10.0165Z" fill="#7B6AE2"/>
<path d="M34.6227 9.8854L35.1651 5.42828C34.7539 5.37027 34.3428 5.31477 33.9266 5.27441L33.3817 9.73658C33.7979 9.77694 34.2116 9.82739 34.6227 9.8854Z" fill="#4F6AE2"/>
<path d="M54.2522 61.6629L56.9991 65.2018C57.5919 64.773 58.172 64.3266 58.7396 63.8624L56.0002 60.3311C55.4327 60.7977 54.8475 61.2366 54.2522 61.6629Z" fill="#37FDC1"/>
<path d="M25.542 70.4664C25.9506 70.59 26.3643 70.7085 26.7805 70.817L27.9408 66.7055C27.507 66.6651 27.0756 66.6147 26.6468 66.5566L25.542 70.4664Z" fill="#3CB2E9"/>
<path d="M56.0936 60.2504L59.0903 63.5725C59.6704 63.0856 60.2354 62.5811 60.7853 62.059L57.7836 58.7319C57.2363 59.2541 56.6763 59.7636 56.0936 60.2504Z" fill="#58FF7F"/>
<path d="M57.8164 58.6991L61.0577 61.789C61.6177 61.2442 62.1625 60.6792 62.6847 60.099L59.4308 57.0317C58.9137 57.6094 58.3713 58.1618 57.8164 58.6991Z" fill="#58FF7F"/>
<path d="M22.9667 69.5784C23.3425 69.7247 23.7209 69.8635 24.1043 69.9972L25.4412 66.3699C25.0376 66.2993 24.6365 66.2186 24.238 66.1328L22.9667 69.5784Z" fill="#3CB2E9"/>
<path d="M15.8484 65.8453C16.1208 66.0295 16.3932 66.2085 16.6707 66.3851L18.1614 64.1225C17.8588 63.9863 17.5586 63.845 17.2635 63.6987L15.8484 65.8453Z" fill="#017BE2"/>
<path d="M13.7018 64.2735C13.9389 64.4602 14.1785 64.6468 14.4207 64.8284L15.861 62.9644C15.5936 62.8155 15.3287 62.6642 15.0664 62.5078L13.7018 64.2735Z" fill="#017BE2"/>
<path d="M20.4871 68.5063C20.8276 68.6703 21.1732 68.8267 21.5187 68.978L22.9641 65.825C22.5933 65.7266 22.225 65.6232 21.8593 65.5122L20.4871 68.5063Z" fill="#3CA0E9"/>
<path d="M18.1135 67.2574C18.4187 67.434 18.729 67.603 19.0418 67.7695L20.535 65.0755C20.197 64.957 19.8616 64.8309 19.5311 64.6997L18.1135 67.2574Z" fill="#3CA0E9"/>
<path d="M52.3201 62.9492L54.7845 66.6824C55.3873 66.3116 55.9776 65.9231 56.5552 65.517L54.0883 61.7788C53.5132 62.1849 52.9254 62.5809 52.3201 62.9492Z" fill="#37FDC1"/>
<path d="M36.449 67.5225L36.6281 71.9998C37.1603 71.9897 37.69 71.9696 38.2172 71.9368L38.0381 67.4595C37.5109 67.4923 36.9812 67.515 36.449 67.5225Z" fill="#58D4FF"/>
<path d="M33.7626 71.9391C34.2645 71.9694 34.769 71.9896 35.276 71.9997L35.4475 67.5249C34.9431 67.5173 34.4386 67.4971 33.9341 67.4644L33.7626 71.9391Z" fill="#36CCE9"/>
<path d="M11.6788 62.5534C11.8831 62.7401 12.09 62.9267 12.2993 63.1084L13.6488 61.61C13.4168 61.4536 13.1872 61.2947 12.9577 61.1333L11.6788 62.5534Z" fill="#017BE2"/>
<path d="M30.9475 71.6568C31.4217 71.7224 31.8959 71.7829 32.3752 71.8309L32.8999 67.3838C32.4206 67.3384 31.9439 67.2829 31.4697 67.2148L30.9475 71.6568Z" fill="#36CCE9"/>
<path d="M28.2031 71.1623C28.6445 71.2607 29.091 71.3515 29.54 71.4322L30.4002 67.1088L29.0532 66.8994L28.2031 71.1623Z" fill="#36CCE9"/>
<path d="M38.9109 67.3916L39.4507 71.8386C40.0056 71.7856 40.558 71.7175 41.1054 71.6393L40.5656 67.1948C40.0182 67.2755 39.4683 67.3411 38.9109 67.3916Z" fill="#58D4FF"/>
<path d="M50.2844 64.0794L52.4638 67.9968C53.0692 67.684 53.6645 67.351 54.2497 67.0055L52.0728 63.0957C51.4901 63.4413 50.8923 63.7692 50.2844 64.0794Z" fill="#4CF0EC"/>
<path d="M48.1631 65.0758L50.0347 69.1394C50.6401 68.8821 51.2354 68.6047 51.8231 68.3171L49.9515 64.251C49.3638 64.5411 48.771 64.821 48.1631 65.0758Z" fill="#4CF0EC"/>
<path d="M45.9585 65.9005L47.5148 70.1053C48.1126 69.901 48.7054 69.6816 49.2881 69.447L47.7318 65.2446C47.1516 65.4817 46.5588 65.6987 45.9585 65.9005Z" fill="#4CF0EC"/>
<path d="M41.3248 67.0686L42.2127 71.4627C42.7853 71.3618 43.3554 71.2458 43.9204 71.1196L43.0325 66.7256C42.47 66.8542 41.8999 66.9703 41.3248 67.0686Z" fill="#58E4FF"/>
<path d="M43.6808 66.5739L44.9042 70.8822C45.4919 70.7309 46.0746 70.5669 46.6522 70.3878L45.4288 66.082C44.8537 66.2611 44.271 66.4251 43.6808 66.5739Z" fill="#58F0FF"/>
<path d="M3.71802 51.9817C3.78612 52.1179 3.85171 52.2542 3.91981 52.3878L4.51762 52.0902C4.43943 51.9615 4.35871 51.8304 4.28304 51.6992L3.71802 51.9817Z" fill="#017BE2"/>
<path d="M0.950928 44.344C0.968585 44.4171 0.986241 44.4903 1.0039 44.566L1.18047 44.5256C1.16029 44.4525 1.14011 44.3793 1.11741 44.3062L0.950928 44.344Z" fill="#017BE2"/>
<path d="M1.6875 46.9799C1.71777 47.0757 1.75056 47.1716 1.78083 47.2674L2.07848 47.1741C2.04064 47.0808 2.00532 46.9849 1.97001 46.8916L1.6875 46.9799Z" fill="#017BE2"/>
<path d="M9.79199 60.6916C9.96604 60.8757 10.1401 61.0573 10.3167 61.2364L11.5451 60.061C11.3458 59.9021 11.1516 59.7406 10.9574 59.5767L9.79199 60.6916Z" fill="#017BE2"/>
<path d="M9.07057 57.8491L8.04395 58.6967C8.18772 58.8732 8.3315 59.0473 8.48032 59.2213L9.56497 58.3284C9.39596 58.1695 9.23201 58.0106 9.07057 57.8491Z" fill="#017BE2"/>
<path d="M2.61072 49.5275C2.65864 49.6435 2.70405 49.7621 2.7545 49.8781L3.1934 49.6965C3.1379 49.583 3.08241 49.4695 3.02692 49.356L2.61072 49.5275Z" fill="#017BE2"/>
<path d="M6.44226 56.5726C6.55829 56.7391 6.67432 56.903 6.79288 57.067L7.71861 56.4137C7.58492 56.2623 7.45123 56.1085 7.32006 55.9546L6.44226 56.5726Z" fill="#017BE2"/>
<path d="M4.99695 54.3328C5.08776 54.4841 5.17856 54.638 5.26937 54.7868L6.02862 54.3303C5.92268 54.1865 5.81926 54.0427 5.71584 53.8989L4.99695 54.3328Z" fill="#017BE2"/>
<path d="M9.29763 58.0635L12.428 54.86C11.8983 54.3429 11.3887 53.8031 10.9019 53.2432L7.51428 56.1717C8.08183 56.825 8.67712 57.4581 9.29763 58.0635Z" fill="#7FF529"/>
<path d="M7.51433 56.169L10.9019 53.2405C10.4176 52.6805 9.95604 52.1003 9.51714 51.5L5.89746 54.1334C6.40699 54.8346 6.94931 55.5157 7.51433 56.169Z" fill="#78F229"/>
<path d="M13.3057 61.3704L15.8559 57.6827C15.2455 57.2614 14.6552 56.8124 14.0826 56.3433L11.2323 59.8015C11.9007 60.3514 12.5919 60.8761 13.3057 61.3704Z" fill="#8DFA28"/>
<path d="M15.5028 62.7602L17.7352 58.8706C17.0919 58.5023 16.4639 58.1063 15.856 57.6851L13.3058 61.3728C14.0171 61.8622 14.7511 62.3263 15.5028 62.7602Z" fill="#94FC27"/>
<path d="M5.89742 54.1338L9.51709 51.5004C9.08071 50.9026 8.66956 50.2846 8.28363 49.6489L4.45459 51.967C4.9061 52.7137 5.38789 53.4351 5.89742 54.1338Z" fill="#71EF29"/>
<path d="M52.0729 51.6416L55.6875 54.3103C56.2021 53.6141 56.6889 52.8952 57.1429 52.1562L53.3139 49.8027C52.928 50.4333 52.5143 51.0463 52.0729 51.6416Z" fill="#A0FE27"/>
<path d="M53.319 49.8002L57.148 52.1536C57.602 51.417 58.0258 50.6603 58.4193 49.8834L54.4061 47.8579C54.0681 48.5238 53.7049 49.1721 53.319 49.8002Z" fill="#A4FD27"/>
<path d="M54.4036 47.8629L58.4167 49.8884C58.8077 49.1165 59.1659 48.327 59.4913 47.5199L55.3192 45.8374C55.0417 46.526 54.7365 47.202 54.4036 47.8629Z" fill="#A9FC27"/>
<path d="M30.8517 62.3594C26.8814 62.3594 23.1003 61.4765 19.7077 59.895L17.8108 63.9611C21.38 65.6284 25.32 66.6324 29.477 66.8165C29.9361 66.8367 30.3952 66.8468 30.8593 66.8468C41.0423 66.8468 50.07 61.9154 55.69 54.3103L52.0754 51.6416C47.2727 58.1419 39.5541 62.3594 30.8517 62.3594Z" fill="#9BFF27"/>
<path d="M55.3192 45.8373L59.4888 47.5172C59.8116 46.7151 60.1017 45.8978 60.3565 45.0654L56.0583 43.7437C55.8439 44.455 55.5942 45.1537 55.3192 45.8373Z" fill="#ADFC27"/>
<path d="M56.6233 41.5923C56.4669 42.3213 56.2777 43.0376 56.0608 43.7414L60.359 45.0631C60.6112 44.2383 60.8332 43.3983 61.0173 42.5458L56.6233 41.5923Z" fill="#B2FB27"/>
<path d="M61.4588 39.9855L57.0017 39.4028C56.9058 40.1419 56.7797 40.8734 56.6233 41.5923L61.0173 42.5483C61.199 41.7083 61.3478 40.8532 61.4588 39.9855Z" fill="#B6FA27"/>
<path d="M61.6858 37.3947L57.1934 37.1904C57.1606 37.9371 57.095 38.6736 57.0017 39.4026L61.4588 39.9853C61.5698 39.1327 61.6455 38.27 61.6858 37.3947Z" fill="#B6FA27"/>
<path d="M17.8108 63.9584L19.7077 59.8923C19.0342 59.577 18.3758 59.2364 17.7352 58.8682L15.5028 62.7577C16.2545 63.1916 17.0238 63.5901 17.8108 63.9584Z" fill="#9BFF27"/>
<path d="M11.2323 59.8013L14.0826 56.343C13.5101 55.8714 12.9576 55.377 12.4279 54.8599L9.29761 58.0633C9.91812 58.6687 10.5639 59.2489 11.2323 59.8013Z" fill="#86F728"/>
<path d="M0.229544 39.7709L4.6791 39.221C4.59081 38.4921 4.53027 37.753 4.50253 37.0063L0.0227051 37.1804C0.0554966 38.0506 0.123602 38.9158 0.229544 39.7709Z" fill="#47E02C"/>
<path d="M0.653259 42.3365L5.03975 41.4133C4.89093 40.6918 4.76985 39.9603 4.67904 39.2188L0.229492 39.7686C0.335434 40.6364 0.47669 41.494 0.653259 42.3365Z" fill="#4EE22B"/>
<path d="M4.45457 51.9695L8.28361 49.6514C7.9002 49.0183 7.54202 48.37 7.21158 47.7041L3.20093 49.6918C3.58686 50.4712 4.0081 51.2304 4.45457 51.9695Z" fill="#6AED2A"/>
<path d="M3.2009 49.6916L7.21155 47.704C6.88363 47.0431 6.58094 46.3646 6.30852 45.6709L2.14148 47.3155C2.46435 48.1252 2.81749 48.9173 3.2009 49.6916Z" fill="#6AED2A"/>
<path d="M2.144 47.3156L6.31104 45.671C6.04114 44.9849 5.79647 44.2837 5.58458 43.5698L1.29395 44.8563C1.54367 45.6912 1.8287 46.511 2.144 47.3156Z" fill="#63EA2A"/>
<path d="M1.29402 44.8562L5.58465 43.5698C5.37277 42.8635 5.19116 42.1446 5.03981 41.4131L0.65332 42.3363C0.832412 43.1889 1.04682 44.0314 1.29402 44.8562Z" fill="#5CE72A"/>
<path d="M60.8938 10.0166L57.486 12.9628C58.2149 13.6438 58.9136 14.3602 59.5745 15.1068L63.2169 12.4583C62.4804 11.6108 61.706 10.7935 60.8938 10.0166Z" fill="#45E53E"/>
<path d="M65.3131 15.1294L61.4639 17.4601C62.0592 18.2774 62.6141 19.1224 63.1312 19.9951L67.1595 17.9999C66.5869 17.0111 65.9714 16.0551 65.3131 15.1294Z" fill="#4BEC51"/>
<path d="M63.217 12.4609L59.5746 15.1095C60.2405 15.8612 60.8711 16.6456 61.4639 17.4604L65.3131 15.1297C64.6547 14.2065 63.956 13.316 63.217 12.4609Z" fill="#48E848"/>
<path d="M35.9849 0C16.6707 0 0 15.6516 0 35.9849C0 36.3834 0.0075673 36.782 0.0227018 37.1754L4.50252 37.0014C4.48991 36.6634 4.48234 36.3254 4.48234 35.9823C4.48234 20.815 15.2001 8.15247 29.477 5.15331C31.5782 4.71188 33.755 4.47982 35.9849 4.47982C42.1724 4.47982 47.9411 6.26317 52.8094 9.34557L55.6825 5.85958C50.0221 2.15667 43.2545 0 35.9849 0Z" fill="#40DD2C"/>
<path d="M58.3739 7.81201L55.2234 11.0382C56.0079 11.6436 56.7646 12.2868 57.486 12.9628L60.8938 10.0166C60.0891 9.24475 59.2466 8.5082 58.3739 7.81201Z" fill="#43E135"/>
<path d="M55.6825 5.86475L52.8094 9.35073C53.6418 9.87792 54.4465 10.4404 55.2209 11.0408L58.3714 7.81458C57.5087 7.12343 56.6107 6.47265 55.6825 5.86475Z" fill="#40DD2C"/>
<path d="M67.1594 17.9976L63.1311 19.9928C63.6457 20.8656 64.1224 21.7661 64.5538 22.6918L68.7334 21.0421C68.2541 20.0029 67.7295 18.9863 67.1594 17.9976Z" fill="#4DF05A"/>
<path d="M71.6216 30.9526L67.1696 31.5025C67.3133 32.5115 67.4092 33.5356 67.4546 34.5748L71.9344 34.4008C71.884 33.2354 71.7805 32.0852 71.6216 30.9526Z" fill="#58FF7F"/>
<path d="M67.4547 34.5725C67.4748 35.0417 67.8355 40.8104 65.636 46.6473L69.9266 47.9691C72.28 42.1196 71.9572 34.9256 71.9345 34.3984L67.4547 34.5725Z" fill="#58FF7F"/>
<path d="M70.0098 24.2402L65.7091 25.5292C66.0471 26.4902 66.3397 27.474 66.5844 28.4754L70.9759 27.5522C70.706 26.4272 70.3832 25.3224 70.0098 24.2402Z" fill="#53F76D"/>
<path d="M68.7309 21.0444L64.5513 22.6941C64.9801 23.6173 65.3685 24.5632 65.7091 25.5318L70.0098 24.2429C69.634 23.1507 69.2051 22.0837 68.7309 21.0444Z" fill="#50F463"/>
<path d="M70.9759 27.5522L66.5844 28.4755C66.8265 29.4668 67.0207 30.4757 67.167 31.4998L71.6191 30.9499C71.4602 29.7997 71.2433 28.6672 70.9759 27.5522Z" fill="#55FB76"/>
<path d="M61.7135 36.0985C61.7161 35.4905 61.6883 34.8599 61.6883 34.8599L57.1934 34.8574C57.2615 36.2902 57.1934 37.1907 57.1934 37.1907L61.6858 37.395C61.6858 37.395 61.711 36.7038 61.7135 36.0985Z" fill="#BEFC45"/>
<path d="M61.6859 34.7134C61.6556 33.9516 61.595 33.1974 61.5093 32.4482L57.0168 32.7837C57.1203 33.6363 57.1758 34.4056 57.201 35.0539L61.6859 34.7134Z" fill="#CDF845"/>
<path d="M61.4866 32.2817C61.3983 31.5452 61.2848 30.8137 61.146 30.0923L56.7015 30.791C56.8529 31.5603 56.9613 32.2944 57.0395 32.9729L61.4866 32.2817Z" fill="#D7F345"/>
<path d="M56.7267 30.9272L61.1082 29.893C60.9644 29.1842 60.7929 28.4855 60.6037 27.7969L56.2349 28.8336C56.3181 29.1287 56.3963 29.4289 56.472 29.7391C56.5678 30.1402 56.6536 30.5387 56.7267 30.9272Z" fill="#DEF345"/>
<path d="M60.5406 27.5652C60.3489 26.8892 60.1396 26.2208 59.9025 25.5649L55.6194 26.9321C55.8439 27.545 56.0659 28.216 56.2651 28.9299L60.5406 27.5652Z" fill="#DCF32A"/>
<path d="M59.8066 25.2999C59.5695 24.6592 59.3046 24.0312 59.0272 23.4106L54.8677 25.0981C55.1098 25.6329 55.3772 26.2711 55.6395 26.99L59.8066 25.2999Z" fill="#E3EA21"/>
<path d="M58.8961 23.1153C58.6186 22.5124 58.3285 21.9172 58.0132 21.3345L53.9874 23.3398C54.0101 23.3802 54.391 24.036 54.8778 25.1131L58.8961 23.1153Z" fill="#EDDC45"/>
<path d="M69.9266 47.9687L65.6359 46.647C65.6359 46.647 65.303 47.6055 64.6724 48.9878L68.6906 50.983L68.1987 50.7383L68.7082 50.9452C69.132 50.0699 69.8736 48.1226 69.9266 47.9687Z" fill="#58FF7F"/>
<path d="M63.4868 51.3437L67.4949 53.3491C67.9212 52.5772 68.3198 51.7877 68.688 50.983L64.6698 48.9878C64.352 49.689 63.956 50.4962 63.4868 51.3437Z" fill="#58FF7F"/>
<path d="M67.4445 53.4373L63.5928 51.1494C63.4111 51.4824 63.222 51.8204 63.0176 52.1609C62.7704 52.5771 62.5207 52.9731 62.271 53.3515L66.1152 55.6444C66.5843 54.9255 67.0283 54.1889 67.4445 53.4373Z" fill="#58FF7F"/>
<path d="M66.0244 55.7808L62.3644 53.2104C61.8574 53.9848 61.3579 54.6735 60.9165 55.246L64.5765 57.8189C65.081 57.158 65.5653 56.477 66.0244 55.7808Z" fill="#58FF7F"/>
<path d="M59.4282 57.032L62.8865 59.8697C63.4212 59.2643 63.9383 58.6438 64.4327 58.0031L60.977 55.1704C60.0891 56.3282 59.4282 57.032 59.4282 57.032Z" fill="#58FF7F"/>
</svg>
